<svg xmlns="http://www.w3.org/2000/svg" xmlns:xlink="http://www.w3.org/1999/xlink" width="2000" zoomAndPan="magnify" viewBox="0 0 1500 1499.999933" height="2000" preserveAspectRatio="xMidYMid meet" version="1.0"><defs><clipPath id="b9fc072c76"><path d="M 0.28125 1 L 1012 1 L 1012 1031 L 0.28125 1031 Z M 0.28125 1 " clip-rule="nonzero"/></clipPath><clipPath id="12538dd0de"><path d="M 692.761719 0.519531 L 1375.960938 0.519531 L 1375.960938 544.519531 L 692.761719 544.519531 Z M 692.761719 0.519531 " clip-rule="nonzero"/></clipPath><clipPath id="fb37bea99f"><path d="M 396 200 L 542 200 L 542 544.519531 L 396 544.519531 Z M 396 200 " clip-rule="nonzero"/></clipPath><clipPath id="d22b06882e"><path d="M 0.761719 0.519531 L 683.960938 0.519531 L 683.960938 527 L 0.761719 527 Z M 0.761719 0.519531 " clip-rule="nonzero"/></clipPath><clipPath id="94f4c45dd5"><rect x="0" width="684" y="0" height="545"/></clipPath><clipPath id="1f7e11b01e"><rect x="0" width="1376" y="0" height="1032"/></clipPath></defs><g transform="matrix(1, 0, 0, 1, 59, 233)"><g clip-path="url(#1f7e11b01e)"><g clip-path="url(#b9fc072c76)"><path fill="#004aad" d="M 1007.992188 989.964844 L 715.792969 402.257812 C 629.765625 479.207031 554.054688 614.214844 558.277344 724.839844 L 646.6875 899.179688 C 649.863281 905.441406 655.273438 910.269531 661.855469 912.714844 L 973.261719 1028.558594 C 996.980469 1037.386719 1019.261719 1012.625 1007.992188 989.964844 Z M 483.628906 668.792969 C 482.878906 669.894531 482.1875 671.070312 481.570312 672.328125 L 370.640625 897.152344 C 367.488281 903.539062 362.011719 908.488281 355.335938 910.972656 L 38.195312 1028.945312 C 14.613281 1037.730469 -7.628906 1013.273438 3.324219 990.628906 L 474.089844 17.238281 C 484.195312 -3.648438 513.898438 -3.820312 524.230469 16.957031 L 705.804688 382.1875 C 606.242188 453.351562 528.277344 552.8125 483.628906 668.792969 " fill-opacity="1" fill-rule="nonzero"/></g><g clip-path="url(#12538dd0de)"><g transform="matrix(1, 0, 0, 1, 692, 0.000000000000113687)"><g clip-path="url(#94f4c45dd5)"><g clip-path="url(#fb37bea99f)"><path fill="#004aad" d="M 541.886719 200.183594 C 443.03125 346.382812 452.183594 468.46875 519.601562 545.039062 C 391.710938 536.453125 313.496094 393.601562 541.886719 200.183594 Z M 541.886719 200.183594 " fill-opacity="1" fill-rule="nonzero"/></g><g clip-path="url(#d22b06882e)"><path fill="#004aad" d="M 109.414062 209.96875 C 67.816406 209.96875 29.875 194.378906 1.027344 168.8125 C 0.964844 168.8125 0.964844 168.75 0.902344 168.75 C 72.171875 175.691406 221.902344 65.726562 354.84375 19.269531 C 404.144531 2.097656 453.257812 -3.960938 492.078125 4.496094 C 508.808594 8.15625 511.523438 37.890625 512.785156 46.980469 C 533.046875 45.273438 623.253906 38.585938 663.402344 72.546875 C 697.425781 101.332031 682.527344 144.003906 655.382812 176.449219 C 656.960938 162.371094 654.4375 151.453125 647.429688 144.699219 C 615.046875 113.386719 498.074219 181.878906 386.15625 297.648438 C 301.757812 385.015625 270.574219 458.621094 262.304688 526.351562 C 212.246094 478.125 187.753906 383.625 223.101562 310.96875 C 169.128906 356.796875 129.171875 418.722656 110.675781 489.296875 C 96.03125 450.601562 87.953125 408.6875 87.953125 364.878906 C 87.953125 309.011719 101.019531 256.175781 124.25 209.273438 C 119.386719 209.714844 114.402344 209.96875 109.414062 209.96875 Z M 408.691406 73.050781 C 416.328125 75.511719 422.324219 79.804688 430.28125 81.128906 C 444.671875 83.464844 460.265625 74.1875 470.238281 63.519531 C 441.390625 59.855469 411.847656 61.8125 383.757812 69.261719 C 391.960938 68.125 401.050781 70.652344 408.691406 73.050781 Z M 408.691406 73.050781 " fill-opacity="1" fill-rule="nonzero"/></g></g></g></g></g></g></svg>